<svg xmlns="http://www.w3.org/2000/svg" viewBox="0 0 64 64">
  <defs>
    <linearGradient id="g" x1="0" y1="0" x2="64" y2="64" gradientUnits="userSpaceOnUse">
      <stop offset="0%" stop-color="#7c3aed"/>
      <stop offset="55%" stop-color="#ec4899"/>
      <stop offset="100%" stop-color="#f59e0b"/>
    </linearGradient>
  </defs>
  <rect x="14" y="14" width="36" height="36" rx="8" fill="url(#g)"/>
  <g stroke="url(#g)" stroke-width="4" stroke-linecap="round">
    <line x1="22" y1="6" x2="22" y2="14"/>
    <line x1="32" y1="6" x2="32" y2="14"/>
    <line x1="42" y1="6" x2="42" y2="14"/>
    <line x1="22" y1="50" x2="22" y2="58"/>
    <line x1="32" y1="50" x2="32" y2="58"/>
    <line x1="42" y1="50" x2="42" y2="58"/>
    <line x1="6" y1="22" x2="14" y2="22"/>
    <line x1="6" y1="32" x2="14" y2="32"/>
    <line x1="6" y1="42" x2="14" y2="42"/>
    <line x1="50" y1="22" x2="58" y2="22"/>
    <line x1="50" y1="32" x2="58" y2="32"/>
    <line x1="50" y1="42" x2="58" y2="42"/>
  </g>
  <path d="M34 22 L25 35 H31 L29 44 L40 30 H33 Z" fill="#fffdf8"/>
</svg>
